<svg xmlns="http://www.w3.org/2000/svg" width="94" height="17"><path fill="#26A541" fill-rule="evenodd" d="M17.275 16.866l.471-2.79h1.263c.47 0 .773-.358.912-1.162.13-.772-.04-1.115-.51-1.115h-1.265l.2-1.157c.224-1.323.886-1.975 1.974-1.975h.207c.608 0 .937-.104.985-.397.036-.199-.018-.472-.078-.773-.064-.291-.133-.575-.23-.733-.145-.268-.481-.396-1.01-.396-1.309 0-2.383.377-3.231 1.136-.845.758-1.384 1.777-1.624 3.157l-.203 1.138h-2.651c-.044 0-2.785.318-2.785.318l2.525.4.101.383-1.546.136 1.625.244.064.311-4.84.28s5.224.206 5.265.206h1.84l-.475 2.789H4.413c-1.411 0-2.562-1.187-2.594-2.658L.4 4.156c.11.022.22.034.334.034l8.32.003c.587 1.014 1.637 1.655 2.799 1.655 1.658 0 3.021-1.297 3.247-2.97h8.139c.216 0 .42.098.561.269.14.17.203.398.172.621l-1.475 10.44c-.031 1.471-1.182 2.658-2.594 2.658h-2.627zM44.098 17l.234-1.495.074-.774c.423.06.776.092 1.057.092.723 0 1.352-.139 1.891-.415.54-.275.955-.64 1.245-1.097.291-.454.504-.93.641-1.424a5.754 5.754 0 0 0 .206-1.544c0-.814-.18-1.476-.536-1.984-.356-.507-.863-.762-1.518-.762-.963 0-1.75.54-2.364 1.617l.05-1.472H43.56L42.168 17H23.902l1.726-13.97H94L92.113 17H44.098zm-16.622-2.65l.348.117c.24.08.6.156 1.082.23.481.075.966.113 1.456.113 1.31 0 2.323-.27 3.037-.808.713-.54 1.069-1.335 1.069-2.385 0-.464-.103-.867-.31-1.208a2.047 2.047 0 0 0-.772-.763 9.246 9.246 0 0 0-2.015-.769 2.347 2.347 0 0 1-.773-.32c-.207-.14-.31-.311-.31-.512 0-.307.184-.541.553-.703.37-.163.807-.244 1.313-.244.473 0 .948.05 1.425.15.477.102.823.214 1.039.336l.373-1.892a3.54 3.54 0 0 0-.454-.157 9.003 9.003 0 0 0-.958-.197 7.827 7.827 0 0 0-1.276-.105c-1.27 0-2.266.278-2.992.834-.726.557-1.089 1.333-1.089 2.332 0 .455.104.845.311 1.169.208.324.465.567.772.728.307.163.642.31 1.007.441.366.131.701.237 1.009.315.306.08.564.195.77.348.208.154.311.336.311.546 0 .315-.17.555-.515.721-.345.168-.774.25-1.289.25-.547 0-1.099-.06-1.655-.183-.555-.122-.92-.245-1.094-.368l-.373 1.983zm14.706-6.608H40.24l-.535 3.533a5.92 5.92 0 0 1-.957 1.222c-.34.324-.648.485-.921.485-.35 0-.523-.257-.523-.774 0-.149.013-.29.038-.42l.61-4.046h-1.929l-.697 4.558c-.034.185-.05.394-.05.63 0 .57.145 1.024.436 1.367.29.342.725.513 1.306.513 1.079 0 1.961-.54 2.65-1.616l-.05 1.471h1.518l1.046-6.923zm14.215 1.944c0-.63-.207-1.131-.621-1.504-.416-.371-1.058-.558-1.93-.558-1.16 0-2.083.411-2.767 1.235-.685.823-1.027 1.838-1.027 3.046 0 .947.234 1.668.703 2.17.47.498 1.258.748 2.37.748a7.16 7.16 0 0 0 2.24-.342l.299-1.668a5.906 5.906 0 0 1-2.028.381c-.557 0-.949-.088-1.175-.264-.23-.175-.364-.463-.406-.866.299.026.606.039.92.039 2.216 0 3.356-.806 3.422-2.417zm.423 4.98h1.941l.522-3.562a3.628 3.628 0 0 1 1.02-1.004c.415-.276.834-.414 1.258-.414l.372-2.089h-.111c-1.005 0-1.842.605-2.514 1.813l.074-1.668h-1.53l-1.032 6.923zm13.855-7.068c-.938 0-1.788.595-2.55 1.786-.017-.544-.167-.977-.448-1.3-.282-.324-.685-.486-1.207-.486-.98 0-1.87.661-2.676 1.982l.15-1.839h-1.195l-1.045 6.925h1.506l.485-3.272a6.917 6.917 0 0 1 1.126-1.675c.427-.46.799-.69 1.114-.69.423 0 .634.307.634.92 0 .105-.017.268-.05.486l-.621 4.23h1.492l.51-3.39a6.594 6.594 0 0 1 1.132-1.589c.432-.438.802-.657 1.108-.657.422 0 .634.307.634.92 0 .105-.016.268-.049.486l-.622 4.23h1.493l.684-4.546c.034-.183.05-.389.05-.617 0-.578-.141-1.04-.423-1.385-.282-.346-.693-.52-1.232-.52zm4.442 7.212c.929 0 1.804-.61 2.626-1.827l-.162 1.682h1.206l1.009-6.673c-.954-.263-1.854-.394-2.7-.394-.706 0-1.324.138-1.854.413-.532.276-.942.642-1.232 1.097a5.25 5.25 0 0 0-.641 1.425 5.751 5.751 0 0 0-.206 1.531c0 .806.174 1.465.523 1.977.348.512.825.769 1.431.769zm5.203-.145h1.506l.523-3.56c.796-1.261 1.61-1.892 2.438-1.892l.3-1.602h-.113c-.963 0-1.812.635-2.55 1.904l.136-1.773h-1.207l-1.033 6.923zm8.913-1.537c-.316.175-.66.263-1.033.263-.332 0-.552-.049-.66-.145-.108-.097-.161-.276-.161-.539a.82.82 0 0 1 .012-.17l.522-3.52h1.83l.236-1.276H88.1l.25-1.668h-1.295l-.423 1.668h-.883l-.2 1.275h.86l-.55 3.679-.048.538c0 1.05.56 1.577 1.68 1.577.489 0 1.02-.106 1.592-.316l.15-1.366zM46.77 9.358c.224 0 .398.124.522.375.125.25.188.566.188.951 0 .613-.149 1.171-.442 1.675-.295.504-.741.756-1.338.756a3.11 3.11 0 0 1-.995-.146l.273-1.85c.266-.474.567-.886.902-1.236.336-.35.633-.526.89-.526zm5.385 1.418c.116-.5.306-.888.566-1.168.262-.28.592-.42.99-.42.248 0 .435.062.56.189a.676.676 0 0 1 .186.493c0 .622-.635.933-1.904.933-.182 0-.316-.008-.398-.027zm23.36 2.601c-.257 0-.458-.143-.604-.427-.145-.285-.217-.658-.217-1.123 0-.323.037-.646.112-.966a3.76 3.76 0 0 1 .355-.931 1.91 1.91 0 0 1 .703-.737c.307-.188.667-.281 1.082-.281.472 0 .866.065 1.182.196l-.274 1.918a7.808 7.808 0 0 1-1.169 1.636c-.448.477-.838.715-1.17.715zM11.855 0c1.262 0 2.285 1.074 2.284 2.398 0 1.324-1.024 2.397-2.287 2.396-1.013 0-1.862-.697-2.161-1.654L.733 3.135C.328 3.135 0 2.791 0 2.366c0-.425.329-.77.734-.77l8.973.005C10.02.67 10.859 0 11.854 0z"/></svg>